<svg width="18" height="19" viewBox="0 0 18 19" fill="none" xmlns="http://www.w3.org/2000/svg">
<path d="M9 15.4375C13.0395 15.4375 16.3125 11.9826 16.3125 7.71875C16.3125 3.45488 13.0395 0 9 0C4.96055 0 1.6875 3.45488 1.6875 7.71875C1.6875 11.9826 4.96055 15.4375 9 15.4375ZM8.21953 3.61445V2.99102C8.21953 2.64961 8.47969 2.375 8.80312 2.375H9.19336C9.5168 2.375 9.77695 2.64961 9.77695 2.99102V3.62187C10.3219 3.65156 10.8492 3.84824 11.2887 4.19336C11.4855 4.34551 11.5066 4.6498 11.3309 4.82793L10.7578 5.40313C10.6242 5.54043 10.4238 5.54414 10.2656 5.44023C10.0758 5.31406 9.86484 5.25098 9.63984 5.25098H8.27227C7.95586 5.25098 7.69922 5.55527 7.69922 5.93008C7.69922 6.23438 7.875 6.50527 8.12461 6.5832L10.3148 7.27715C11.2184 7.56289 11.8512 8.47949 11.8512 9.50742C11.8512 10.7691 10.923 11.7896 9.77344 11.823V12.4465C9.77344 12.7879 9.51328 13.0625 9.18984 13.0625H8.79961C8.47617 13.0625 8.21602 12.7879 8.21602 12.4465V11.8156C7.67109 11.7859 7.14375 11.5893 6.7043 11.2441C6.50742 11.092 6.48633 10.7877 6.66211 10.6096L7.23516 10.0344C7.36875 9.89707 7.56914 9.89336 7.72734 9.99727C7.91719 10.1234 8.12813 10.1865 8.35313 10.1865H9.7207C10.0371 10.1865 10.2937 9.88223 10.2937 9.50742C10.2937 9.20313 10.118 8.93223 9.86836 8.8543L7.67812 8.16035C6.77461 7.87461 6.1418 6.95801 6.1418 5.93008C6.14531 4.66836 7.06992 3.64785 8.21953 3.61445V3.61445ZM16.875 13.0625H15.7324C15.0434 14.0273 14.1645 14.8326 13.166 15.4375H15.409C15.5953 15.4375 15.7465 15.5711 15.7465 15.7344V16.3281C15.7465 16.4914 15.5953 16.625 15.409 16.625H2.5875C2.40117 16.625 2.25 16.4914 2.25 16.3281V15.7344C2.25 15.5711 2.40117 15.4375 2.5875 15.4375H4.83047C3.83203 14.8326 2.95664 14.0273 2.26406 13.0625H1.125C0.502734 13.0625 0 13.5932 0 14.25V17.8125C0 18.4693 0.502734 19 1.125 19H16.875C17.4973 19 18 18.4693 18 17.8125V14.25C18 13.5932 17.4973 13.0625 16.875 13.0625Z" fill="#212121"/>
</svg>
