<svg width="82" height="83" viewBox="0 0 82 83" fill="none" xmlns="http://www.w3.org/2000/svg">
<path d="M57 34.2812V52.8438C57 54.5518 55.6143 55.9375 53.9062 55.9375H27.0938C25.3857 55.9375 24 54.5518 24 52.8438V34.2812C24 32.5732 25.3857 31.1875 27.0938 31.1875H32.7656L33.5584 29.067C34.0096 27.8617 35.1633 27.0625 36.4523 27.0625H44.5412C45.8303 27.0625 46.984 27.8617 47.4352 29.067L48.2344 31.1875H53.9062C55.6143 31.1875 57 32.5732 57 34.2812ZM48.2344 43.5625C48.2344 39.2957 44.7668 35.8281 40.5 35.8281C36.2332 35.8281 32.7656 39.2957 32.7656 43.5625C32.7656 47.8293 36.2332 51.2969 40.5 51.2969C44.7668 51.2969 48.2344 47.8293 48.2344 43.5625ZM46.1719 43.5625C46.1719 46.6885 43.626 49.2344 40.5 49.2344C37.374 49.2344 34.8281 46.6885 34.8281 43.5625C34.8281 40.4365 37.374 37.8906 40.5 37.8906C43.626 37.8906 46.1719 40.4365 46.1719 43.5625Z" fill="#CCCCCC"/>
<rect x="0.5" y="1" width="81" height="81" rx="2.5" stroke="#EEEEEE"/>
</svg>
